<svg xmlns="http://www.w3.org/2000/svg" viewBox="0 0 50 50"><defs><style>.cls-1{fill:#58ba4f;}.cls-2{fill:#fff;}</style></defs><title>Static File Cache</title><rect class="cls-1" width="50" height="50"/><path class="cls-2" d="M35.23,23l4.37-1.77s-5.21-12.8-20-8.12a14.64,14.64,0,0,0-8.45,6.8,15.19,15.19,0,0,0-.88,14S8.17,27.4,11.63,21.72c1.58-2.61,5.74-6.73,11.6-6.67C32.93,15.15,35.23,23,35.23,23Z" transform="translate(0 0.02)"/><path class="cls-2" d="M41,24a.55.55,0,0,0-.65-.25L25,29.58a2.25,2.25,0,0,0-1.12-.29A2.33,2.33,0,1,0,26.16,32l14.56-7.4A.53.53,0,0,0,41,24Z" transform="translate(0 0.02)"/></svg>
