<svg xmlns="http://www.w3.org/2000/svg"
		 id="module-staticfilecache"
		 viewBox="0 0 64 64">

	<path
		fill="currentColor"
		d="
      M33.02 26.39
      L34.75 25.29
      S31.74 17.25 22.5 20.17
      A9.15 9.15 0 0 0 17.22 24.25
      A9.49 9.49 0 0 0 16.67 33
      S15.36 28.93 17.5 25.41
      C18.49 23.78 21.09 21.19 24.71 21.22
      C30.78 21.28 32.25 26.17 32.25 26.17
      Z"/>

	<path
		fill="var(--icon-color-accent, #ff8700)"
		d="
      M37.63 27
      A0.34 0.34 0 0 0 37.22 26.84
      L27.62 30.5
      A1.4 1.4 0 0 0 26.92 30.32
      A1.46 1.46 0 1 0 28.35 32.01
      L37.45 27.39
      A0.33 0.33 0 0 0 37.63 27
      Z"/>
</svg>
